# Blender 4.4.3
# www.blender.org
mtllib diagonal_up_small.mtl
o Cube
v -0.500000 -0.500000 0.500000
v -0.500000 0.000000 0.500000
v -0.500000 0.000000 -0.500000
v -0.500000 0.000000 -0.500000
v 0.500000 -0.500000 -0.500000
v 0.500000 0.000000 -0.500000
vn -1.0000 -0.0000 -0.0000
vn -0.0000 -0.0000 -1.0000
vn -0.4082 -0.8165 -0.4082
vn 0.7071 -0.0000 0.7071
vn -0.0000 1.0000 -0.0000
vt 0.375000 0.000000
vt 0.625000 0.000000
vt 0.625000 0.250000
vt 0.375000 0.250000
vt 0.625000 0.500000
vt 0.375000 0.500000
vt 0.125000 0.500000
vt 0.125000 0.750000
vt 0.875000 0.750000
vt 0.875000 0.500000
s 0
f 1/1/1 2/2/1 4/3/1 3/4/1
f 3/4/2 4/3/2 6/5/2 5/6/2
f 3/7/3 5/6/3 1/8/3
f 1/8/4 5/6/4 6/5/4 2/9/4
f 2/9/5 6/5/5 4/10/5
